<svg width="32" height="32" viewBox="0 0 32 32" fill="none" xmlns="http://www.w3.org/2000/svg">
<path d="M8 25C7.45 25 6.97917 24.8042 6.5875 24.4125C6.19583 24.0208 6 23.55 6 23V12C6 11.45 6.19583 10.9792 6.5875 10.5875C6.97917 10.1958 7.45 10 8 10H12V8C12 7.45 12.1958 6.97917 12.5875 6.5875C12.9792 6.19583 13.45 6 14 6H18C18.55 6 19.0208 6.19583 19.4125 6.5875C19.8042 6.97917 20 7.45 20 8V10H24C24.55 10 25.0208 10.1958 25.4125 10.5875C25.8042 10.9792 26 11.45 26 12V23C26 23.55 25.8042 24.0208 25.4125 24.4125C25.0208 24.8042 24.55 25 24 25H8ZM14 10H18V8H14V10ZM24 19H19V20C19 20.2833 18.9042 20.5208 18.7125 20.7125C18.5208 20.9042 18.2833 21 18 21H14C13.7167 21 13.4792 20.9042 13.2875 20.7125C13.0958 20.5208 13 20.2833 13 20V19H8V23H24V19ZM15 19H17V17H15V19ZM8 17H13V16C13 15.7167 13.0958 15.4792 13.2875 15.2875C13.4792 15.0958 13.7167 15 14 15H18C18.2833 15 18.5208 15.0958 18.7125 15.2875C18.9042 15.4792 19 15.7167 19 16V17H24V12H8V17Z" fill="#6A4DBA"/>
</svg>
